<svg xmlns="http://www.w3.org/2000/svg" viewBox="0 0 520 140" role="img" aria-labelledby="title">
  <title id="title">College Board</title>
  <rect width="520" height="140" fill="none"/>
  <g fill="none" stroke="#fff" stroke-width="11" stroke-linecap="round" stroke-linejoin="round">
    <path d="M93 28c-12 0-24 8-31 19-16 1-27 12-27 27 0 32 33 53 58 56 25-3 58-24 58-56 0-15-11-26-27-27-7-11-19-19-31-19z"/>
    <path d="M88 39c2-17 12-25 29-27-2 17-12 26-29 27z"/>
    <path d="M64 74c20-8 39-8 58 0"/>
  </g>
  <text x="182" y="88" fill="#fff" font-family="Arial, Helvetica, sans-serif" font-size="46" font-weight="900">College Board</text>
</svg>
