<svg xmlns="http://www.w3.org/2000/svg" viewBox="0 0 420 140" role="img" aria-labelledby="title">
  <title id="title">IELTS IDP</title>
  <rect width="420" height="140" fill="none"/>
  <g fill="#fff" transform="translate(22 25)">
    <path d="M47 2c33 4 47 22 39 51-30 7-51-8-59-40 6-6 12-9 20-11z"/>
    <path d="M4 77c8-33 29-47 58-39 7 30-8 51-40 59-8-5-14-11-18-20z"/>
    <path d="M88 101c-32-8-47-29-39-58 30-7 51 8 59 40-5 8-11 14-20 18z"/>
  </g>
  <text x="158" y="91" fill="#fff" font-family="Arial, Helvetica, sans-serif" font-size="72" font-weight="900">idp</text>
  <text x="292" y="91" fill="#fff" font-family="Arial, Helvetica, sans-serif" font-size="24" font-weight="800" letter-spacing="5">IELTS</text>
</svg>
