<svg xmlns="http://www.w3.org/2000/svg" viewBox="0 0 520 140" role="img" aria-labelledby="title">
  <title id="title">Khan Academy</title>
  <rect width="520" height="140" fill="none"/>
  <g fill="none" stroke="#fff" stroke-width="7" stroke-linecap="round" stroke-linejoin="round">
    <path d="M63 18 119 50v64l-56 32-56-32V50z" transform="scale(.78) translate(30 15)"/>
    <path d="M63 47c-20 16-33 40-31 69 26 0 48-13 61-35 13 22 35 35 61 35 2-29-11-53-31-69-17 12-27 30-30 52-3-22-13-40-30-52z" transform="scale(.78) translate(30 15)"/>
    <circle cx="79" cy="47" r="16"/>
  </g>
  <text x="162" y="88" fill="#fff" font-family="Arial, Helvetica, sans-serif" font-size="46" font-weight="900">Khan Academy</text>
</svg>
